<?xml version="1.0" encoding="utf-8"?>
<!-- Generator: Adobe Illustrator 26.0.0, SVG Export Plug-In . SVG Version: 6.00 Build 0)  -->
<svg version="1.1" id="index1_1" xmlns="http://www.w3.org/2000/svg" xmlns:xlink="http://www.w3.org/1999/xlink" x="0px" y="0px"
	 viewBox="0 0 500 500" style="enable-background:new 0 0 500 500;" xml:space="preserve">
<style type="text/css">
	.st0{fill:#FFC700;}
	.st1{fill:#191326;}
</style>
<circle class="st0" cx="250" cy="250" r="250"/>
<g>
	<polygon class="st1" points="168.2,139.7 252.6,91 336.9,139.7 306,157.7 252.6,126.9 199.2,157.7 	"/>
	<polygon class="st1" points="336.9,201.1 306,183.1 252.6,213.9 199.2,183.1 168.2,201.1 168.2,237.2 221.5,267.8 221.5,329.3 
		252.6,347.3 283.6,329.3 283.6,267.8 336.9,237.2 	"/>
	<polygon class="st1" points="336.9,298.5 336.9,262.6 306,280.6 306,316.5 	"/>
	<polygon class="st1" points="359.1,311.3 305.6,342 305.6,378 390,329.3 390,231.9 359.1,249.8 	"/>
	<polygon class="st1" points="328,170.4 359.1,188.4 359.1,224.4 390,206.4 390,170.4 359.1,152.4 	"/>
	<polygon class="st1" points="221.5,355 221.5,391 252.6,409 283.6,391 283.6,355 252.6,373.1 	"/>
	<polygon class="st1" points="168.2,298.5 199.2,316.5 199.2,280.6 168.2,262.6 	"/>
	<polygon class="st1" points="221.5,170.4 252.6,188.4 283.6,170.4 252.6,152.4 	"/>
	<polygon class="st1" points="146.1,188.4 177.2,170.4 146.1,152.4 115.1,170.4 115.1,206.4 146.1,224.4 	"/>
	<polygon class="st1" points="146.1,249.8 115.1,231.9 115.1,329.3 199.5,378 199.5,342 146.1,311.3 	"/>
</g>
</svg>
