<svg xmlns="http://www.w3.org/2000/svg" viewBox="0 0 1024 1024" version="1.1" width="200" height="200">
  <path d="M0 512c0 282.56 229.44 512 512 512s512-229.44 512-512S794.56 0 512 0 0 229.44 0 512z" fill="#2775C9"></path>
  <path
    d="M481.28 321.92v-32.16c0-17.12 13.6-30.72 30.72-30.72s30.72 13.6 30.72 30.72V321.6c55.68 8.16 93.6 40 103.84 84.96 2.08 9.92-3.68 19.52-13.6 21.92-1.44 0.32-2.72 0.32-4.16 0.32h-16.8c-13.28 0-25.6-7.84-31.36-19.84-10.56-22.56-35.84-35.52-69.28-35.52-41.92 0-69.92 20.48-69.92 51.2 0 24.64 18.72 38.88 64.16 49.76l42.72 9.92c75.04 17.12 106.88 48.16 106.88 103.36 0 61.12-42.72 102.4-112.64 112.32v36.8c0 17.12-13.6 30.72-30.72 30.72s-30.72-13.6-30.72-30.72v-36.48c-62.08-7.52-104.16-40.32-113.6-90.4-1.76-8.16 3.68-16.32 12-17.76 0.96-0.32 2.08-0.32 3.04-0.32h25.28c11.2 0 21.92 6.56 26.56 16.8 11.68 24.64 41.28 39.52 78.56 39.52 44.64 0 75.84-22.24 75.84-52.96 0-26.56-19.04-41.92-65.6-53.28l-48.16-11.2c-68.32-15.68-100.64-48.48-100.64-101.44 0-56.48 43.04-97.44 106.88-107.36zM128 512c0-169.28 110.56-312.96 263.84-363.52 9.6-3.04 20.16 2.08 23.2 11.68 0.64 1.76 0.96 3.68 0.96 5.76v10.88c0 16.32-9.92 31.36-25.28 37.6-117.76 47.84-201.12 162.88-201.12 297.6 0 134.56 82.88 249.92 200.64 297.28 15.36 6.08 25.6 21.12 25.6 37.92v8.8c0 10.88-8.8 19.52-19.52 19.52-2.08 0-4.16-0.32-6.08-0.96C237.92 824.32 128 680.96 128 512z m768 0c0 168.64-109.28 311.68-261.12 362.56-10.56 3.68-22.24-2.08-25.92-12.64-0.64-2.08-0.96-4.48-0.96-6.56v-7.2c0-17.12 10.24-32.48 25.92-38.88C751.36 761.44 834.24 646.4 834.24 512c0-134.08-82.56-249.12-200-296.96-16-6.56-26.24-22.24-26.24-39.2v-6.56c0-11.2 9.28-20.48 20.48-20.48 2.4 0 4.48 0.32 6.56 0.96C786.72 200.64 896 343.68 896 512z"
    fill="#FFFFFF"></path>
</svg>
