<svg xmlns="http://www.w3.org/2000/svg" width="26" height="26" viewBox="0 0 26 26"><defs><style>.a{fill:#4f73a3;}.b{fill:#fff;}</style></defs><g transform="translate(-64.35 -63.54)"><path class="a" d="M77.35,76.54m-13,0a13,13,0,1,0,13-13A13,13,0,0,0,64.35,76.54Z" transform="translate(0 0)"/><path class="b" d="M431.856,432.953l1.9-1.9,1.9,1.9-1.9,1.9Z" transform="translate(-356.262 -356.274)"/><path class="b" d="M175.745,170.626l-3.109,3.109,1.9,1.9,3.109-3.109,3.109,3.109,1.9-1.9-3.109-3.109-1.9-1.9Zm3.791,12.435,3.109-3.109-1.9-1.9-3.109,3.109-3.109-3.109-1.9,1.9,3.109,3.109,1.9,1.9Zm-10.009-6.217,1.9-1.9,1.9,1.9-1.9,1.9Zm12.435,0,1.9-1.9,1.9,1.9-1.9,1.9Z" transform="translate(-100.259 -100.271)"/></g></svg>