<svg width="132" height="40" viewBox="0 0 132 40" fill="none" xmlns="http://www.w3.org/2000/svg">
<path d="M10.622 30.3541C10.6463 30.3197 10.6686 30.2843 10.6909 30.249C11.3837 29.1221 12.0659 27.9879 12.7645 26.8651C13.8455 25.1274 14.9361 23.3969 16.0258 21.6644C16.8302 20.3856 17.6433 19.114 18.4439 17.8331C19.0678 16.8363 19.6898 15.8384 20.3108 14.8405C20.9328 13.8426 21.5538 12.8437 22.1748 11.8458C22.7948 10.8635 23.4149 9.88228 24.0349 8.90001C25.896 5.95213 27.762 2.99697 29.6463 0.0126692C27.1962 0.0126692 24.8713 -0.0258312 22.5474 0.0313991C21.6353 0.0542912 20.728 0.296739 19.8926 0.744176C19.8761 0.741054 19.8615 0.741054 19.8499 0.744176C19.8382 0.747297 19.8276 0.753541 19.8198 0.760825C19.8179 0.762906 19.8159 0.767068 19.8159 0.767068C19.8101 0.774352 19.8043 0.781636 19.8004 0.791C19.7965 0.800365 19.7936 0.810771 19.7907 0.821176C19.7354 0.831582 19.681 0.845109 19.6306 0.86488C19.5481 0.897137 19.4734 0.947083 19.4132 1.02616C19.4113 1.02825 19.4103 1.03033 19.4084 1.03241C19.3579 1.05634 19.2851 1.03657 19.2434 1.07923C19.2298 1.09276 19.2201 1.11357 19.2153 1.14479C18.7146 1.38307 18.2915 1.72645 17.915 2.1229C17.8559 2.18534 17.7976 2.24881 17.7404 2.31332C17.6637 2.39969 17.59 2.48918 17.5172 2.57867C17.4085 2.71394 17.3028 2.85233 17.1999 2.9928C15.757 4.96881 14.547 7.12171 13.2138 9.18304C11.4226 11.9519 9.69538 14.7697 7.93423 17.5615C6.88918 19.2181 5.81891 20.8559 4.85925 22.5728V22.5708C4.84858 22.577 4.8379 22.5832 4.8282 22.5895C4.78065 22.6228 4.75251 22.6654 4.75251 22.7216C4.75251 22.7445 4.75737 22.7685 4.76804 22.7955C4.6157 23.0078 4.45462 23.2138 4.30422 23.4282C4.25473 23.5 4.20525 23.5718 4.15867 23.6456C3.10683 25.3074 2.06567 26.9775 1.01577 28.6403C0.739229 29.0784 0.47821 29.5195 0.305491 30.0211C-0.0292727 30.9961 -0.0195694 32.0002 0.0182735 33.0158C0.052235 33.9419 0.328779 34.8097 0.718852 35.5912C1.55237 37.2612 2.83029 38.4579 4.43522 39.2789C4.82238 39.4766 5.01838 39.2986 5.14938 39.0739C5.81114 37.9324 6.55636 36.8533 7.24917 35.7358C8.29907 34.0439 9.34703 32.3498 10.396 30.6569C10.4697 30.5549 10.5473 30.456 10.6191 30.352L10.622 30.3541Z" fill="url(#paint0_linear_1880_979)"/>
<path d="M41.4281 26.0514C41.3815 25.9733 41.3339 25.8953 41.2864 25.8172C40.5936 24.6862 39.8154 23.6123 39.0721 22.5166C39.0517 22.4864 39.0333 22.4552 39.0168 22.423C38.9867 22.3626 38.9586 22.3023 38.9227 22.2471C37.8204 20.5708 36.7142 18.8976 35.6138 17.2192C34.9492 16.2046 34.2884 15.187 33.6382 14.161C33.4248 13.8239 33.2229 13.8676 32.991 14.1152C32.8989 14.213 32.8047 14.3077 32.7145 14.4066C31.6956 15.5127 30.6758 16.6177 29.6579 17.7249C29.5376 17.856 29.3969 18.01 29.2465 18.1744C28.1908 19.3273 28.0132 21.1077 28.8176 22.4729C29.6628 23.9068 30.7175 25.6674 31.4239 26.7392C32.2681 28.0211 33.1376 29.2844 33.9963 30.5559C34.0283 30.6027 34.0487 30.6558 34.0681 30.7099C34.071 30.7172 34.0749 30.7255 34.0788 30.7318C35.5517 32.9346 37.0305 35.1322 38.4938 37.3424C38.684 37.6296 38.8314 37.5567 39.0459 37.4131C40.0453 36.7441 40.8478 35.9106 41.4552 34.9231C43.1058 32.2416 43.0437 28.7558 41.4281 26.0503V26.0514Z" fill="url(#paint1_linear_1880_979)"/>
<path d="M34.2768 37.999C33.9915 37.5557 33.7111 37.1094 33.4316 36.6619C32.5932 35.3196 31.7665 33.9679 30.8544 32.6797C30.6273 32.123 30.2829 31.6465 29.9559 31.1574C29.8074 30.9347 29.6628 30.71 29.5357 30.4738C29.4261 30.2709 29.2223 30.3343 29.0496 30.3343C24.4007 30.3333 19.7519 30.3551 15.104 30.3135C14.3112 30.3062 13.8173 30.5133 13.3885 31.2646C12.7898 32.3145 12.0426 33.2666 11.4439 34.3228C11.4323 34.3248 11.4206 34.3269 11.4119 34.3311C11.377 34.3488 11.3614 34.3852 11.3566 34.432C11.3284 34.4497 11.3022 34.4674 11.277 34.4861C11.2023 34.5454 11.148 34.6193 11.1557 34.74C11.1111 34.765 11.0723 34.7952 11.0412 34.8305C10.9869 34.8919 10.9529 34.9689 10.9432 35.0647C10.4464 35.741 9.98163 36.4413 9.5246 37.1479C9.40622 37.331 9.28784 37.5152 9.16946 37.6983C8.98607 37.9834 8.80365 38.2696 8.62025 38.5536C8.367 38.9449 8.1118 39.3351 7.85078 39.7201C7.66351 39.9958 7.86728 39.999 8.02932 39.9979C8.5271 39.9938 9.02488 39.975 9.52266 39.9615C9.74002 39.9719 9.9564 39.9875 10.1738 39.9958C10.2465 39.9979 10.3183 40 10.3911 40C16.1549 39.9979 21.9186 39.9927 27.6814 39.9854C27.9065 39.9854 28.1317 39.9636 28.3568 39.9521C29.821 40.0375 31.2862 39.9563 32.7514 39.9698C33.4762 39.9761 34.1982 39.9376 34.9191 39.8314C35.3121 39.7732 35.347 39.6608 35.1161 39.3299C34.8172 38.9022 34.5611 38.4402 34.2777 38.0001L34.2768 37.999Z" fill="url(#paint2_linear_1880_979)"/>
<path d="M126.832 30.3482V9.91223H131.377V30.3482H126.832Z" fill="white"/>
<path d="M104.434 30.3482L112.539 9.91223H116.649L124.667 30.3482H119.862L113.725 13.3858H115.375L109.152 30.3482H104.434ZM109.036 26.6431V22.938H120.18V26.6431H109.036Z" fill="white"/>
<path d="M98.0769 30.3481V22.3301C98.0769 21.5968 97.8453 21.0082 97.3822 20.5643C96.9383 20.1012 96.3691 19.8696 95.6743 19.8696C95.1919 19.8696 94.7674 19.9758 94.4007 20.188C94.0341 20.381 93.7446 20.6705 93.5323 21.0564C93.3201 21.4231 93.2139 21.8476 93.2139 22.3301L91.5061 21.4906C91.5061 20.3907 91.7473 19.4258 92.2298 18.596C92.7122 17.7662 93.3779 17.1294 94.227 16.6856C95.0954 16.2224 96.0699 15.9908 97.1506 15.9908C98.1927 15.9908 99.1093 16.2417 99.9005 16.7434C100.711 17.2259 101.348 17.8723 101.811 18.6828C102.274 19.4933 102.506 20.381 102.506 21.3459V30.3481H98.0769ZM88.7852 30.3481V16.2803H93.2139V30.3481H88.7852Z" fill="white"/>
<path d="M79.8753 30.6666C78.3508 30.6666 76.9903 30.3578 75.7939 29.7403C74.6168 29.1035 73.6905 28.2254 73.0151 27.1062C72.3397 25.9869 72.002 24.723 72.002 23.3142C72.002 21.9055 72.33 20.6512 72.9861 19.5512C73.6615 18.432 74.5685 17.554 75.7071 16.9171C76.8456 16.2803 78.1289 15.9619 79.5569 15.9619C80.9463 15.9619 82.1717 16.261 83.2331 16.8592C84.2944 17.4575 85.1242 18.2873 85.7224 19.3486C86.34 20.41 86.6487 21.6257 86.6487 22.9958C86.6487 23.2467 86.6294 23.5169 86.5908 23.8063C86.5715 24.0765 86.5233 24.3949 86.4461 24.7615L74.3176 24.7905V21.7511L84.5646 21.7222L82.6541 22.9958C82.6348 22.1853 82.5094 21.5196 82.2778 20.9985C82.0463 20.4582 81.6989 20.053 81.2358 19.7828C80.7919 19.4933 80.242 19.3486 79.5858 19.3486C78.8911 19.3486 78.2833 19.5126 77.7622 19.8407C77.2605 20.1495 76.8649 20.5933 76.5754 21.1722C76.3053 21.7511 76.1702 22.4555 76.1702 23.2853C76.1702 24.1151 76.3149 24.8291 76.6044 25.4273C76.9132 26.0062 77.3377 26.4597 77.878 26.7878C78.4377 27.0965 79.0938 27.2509 79.8464 27.2509C80.5411 27.2509 81.1682 27.1351 81.7279 26.9036C82.2875 26.6527 82.7796 26.286 83.2041 25.8036L85.6356 28.2351C84.9409 29.0456 84.1015 29.6534 83.1173 30.0587C82.1331 30.4639 81.0525 30.6666 79.8753 30.6666Z" fill="white"/>
<path d="M57.332 30.3482V9.91223H61.8766V30.3482H57.332ZM60.8345 30.3482V26.3537H70.9367V30.3482H60.8345Z" fill="white"/>
<defs>
<linearGradient id="paint0_linear_1880_979" x1="21.3333" y1="0" x2="21.3333" y2="40" gradientUnits="userSpaceOnUse">
<stop stop-color="#5AC27C"/>
<stop offset="1" stop-color="#B2E235"/>
</linearGradient>
<linearGradient id="paint1_linear_1880_979" x1="21.3333" y1="0" x2="21.3333" y2="40" gradientUnits="userSpaceOnUse">
<stop stop-color="#5AC27C"/>
<stop offset="1" stop-color="#B2E235"/>
</linearGradient>
<linearGradient id="paint2_linear_1880_979" x1="21.3333" y1="0" x2="21.3333" y2="40" gradientUnits="userSpaceOnUse">
<stop stop-color="#5AC27C"/>
<stop offset="1" stop-color="#B2E235"/>
</linearGradient>
</defs>
</svg>
